<?xml version="1.0" encoding="UTF-8"?>
<svg id="Layer_1" data-name="Layer 1" xmlns="http://www.w3.org/2000/svg" viewBox="0 0 100 100">
  <defs>
    <style>
      .cls-1 {
        stroke: #fff;
        stroke-miterlimit: 10;
        stroke-width: .5px;
      }
    </style>
  </defs>
  <path class="cls-1" d="m57.97,74.72c-3.65,0-7.3-.06-10.95.03-1.78.04-2.71-.73-2.92-2.41-.51-4-2.29-7.43-5.33-9.92-9.29-7.61-8.13-23.02-2.5-31.1,7.78-11.17,21.31-14.91,33.4-8.63,9.37,4.87,13.96,13.02,14,23.69.02,6.49-2.14,11.96-7.03,16.31-2.93,2.61-4.6,5.96-5.16,9.81-.25,1.76-1.12,2.27-2.74,2.24-3.59-.05-7.17-.02-10.76-.02Zm-11.02-2.83c7.09,0,14.05.02,21.01-.06.42,0,1.05-.82,1.19-1.36,1.03-3.95,3.05-7.26,5.92-10.14,1.41-1.42,2.8-2.94,3.82-4.65,2.33-3.91,2.49-8.27,2-12.67-1.57-14.12-15.05-23.44-28.79-19.91-9.63,2.47-16.77,11-17.37,20.89-.34,5.67.42,11.07,4.86,15.24,3.69,3.46,6.45,7.45,7.37,12.66Z"/>
  <path class="cls-1" d="m57.56,94.12c-3.8-.28-7.27-1.59-9.03-5.76-.17-.4-.8-.73-1.28-.84-.69-.15-1.46.06-2.13-.13-.46-.13-1.13-.69-1.11-1.04.02-.5.47-1.14.92-1.42.45-.28,1.12-.23,1.7-.23,7.48-.01,14.97-.01,22.45,0,.58,0,1.26-.06,1.7.21.46.28,1,.97.95,1.41-.06.43-.87,1.16-1.25,1.1-2.24-.37-3.18.82-4.25,2.59-1.83,3.01-4.94,3.99-8.68,4.11Zm7.02-6.45h-13.41c1.48,2.74,3.65,3.6,6.25,3.68,2.94.09,5.48-.64,7.16-3.68Z"/>
  <path class="cls-1" d="m8.56,66.69c4.9,0,9.37,0,13.84,0,2.67,0,5.35-.02,8.02,0,1.14,0,2.69-.25,2.76,1.39.08,1.79-1.54,1.38-2.64,1.39-6.52.03-13.04.01-19.57.01-.64,0-1.28,0-2.45,0,.79.86,1.42,1.33,1.74,1.95.27.55.19,1.27.26,1.92-.71,0-1.66.28-2.08-.07-1.49-1.25-2.9-2.64-4.13-4.15-.35-.44-.29-1.69.09-2.16,1.19-1.46,2.55-2.8,3.99-4.01.42-.36,1.33-.14,2.01-.18-.04.69.08,1.44-.18,2.04-.25.6-.88,1.03-1.66,1.88Z"/>
  <path class="cls-1" d="m8.51,25.47c5.4,0,10.26,0,15.13,0,2.48,0,4.95,0,7.43,0,1.02,0,2.24.06,2.05,1.37-.08.56-1.33,1.35-2.06,1.36-6.65.11-13.29.06-19.94.06-.68,0-1.37,0-2.45,0,.81.87,1.46,1.35,1.78,2,.24.48.28,1.39-.02,1.71-.3.32-1.37.4-1.69.12-1.61-1.41-3.17-2.91-4.57-4.53-.29-.34-.07-1.52.32-1.98,1.12-1.35,2.38-2.61,3.73-3.72.5-.41,1.42-.31,2.16-.44-.11.79-.11,1.62-.37,2.36-.18.5-.74.87-1.49,1.69Z"/>
  <path class="cls-1" d="m4.6,46.08c6.32,0,12.11,0,17.9,0,.52,0,1.13-.15,1.54.07.5.26,1.14.81,1.16,1.27.02.43-.6,1.05-1.08,1.3-.48.24-1.14.15-1.72.15-5.27.01-10.55.01-15.82.02-.5,0-.99.08-1.82.14.7.76,1.35,1.24,1.68,1.88.24.46.3,1.36.02,1.67-.31.33-1.36.48-1.66.22-1.65-1.46-3.23-3.01-4.69-4.67-.26-.3,0-1.4.36-1.83,1.19-1.38,2.47-2.7,3.87-3.85.47-.39,1.42-.19,2.15-.26-.07.69,0,1.44-.26,2.06-.23.55-.82.94-1.64,1.82Z"/>
  <path class="cls-1" d="m57.73,79.12c3.98,0,7.96-.07,11.93.06.75.02,1.99.73,2.1,1.29.25,1.34-1.03,1.43-2.01,1.43-7.89.02-15.78.01-23.67.01-1.12,0-2.25-.16-2.15-1.6.09-1.42,1.31-1.18,2.26-1.18,3.85-.02,7.69,0,11.54,0Z"/>
  <path class="cls-1" d="m87.77,62.78c.51.23.87.36,1.19.55,1.62.93,3.27,1.81,4.8,2.87.41.29.42,1.16.61,1.76-.63.17-1.42.66-1.87.44-1.79-.86-3.51-1.89-5.16-2.99-.4-.27-.59-1.1-.56-1.65.02-.34.65-.65,1-.97Z"/>
  <path class="cls-1" d="m79.72,11.67c-.27.51-.52,1.03-.81,1.53-.8,1.41-1.51,2.88-2.47,4.18-.33.44-1.28.42-1.95.6-.12-.63-.52-1.41-.3-1.88.86-1.74,1.87-3.41,2.96-5.02.27-.4,1.06-.58,1.62-.6.49-.02.99.33,1.49.51-.18.23-.36.45-.54.68Z"/>
  <path class="cls-1" d="m56.58,9.13c0-1.04-.13-2.1.06-3.1.09-.47.8-1.12,1.24-1.13.43,0,1.21.67,1.24,1.1.15,2.06.18,4.15.05,6.21-.03.49-.84.93-1.3,1.39-.45-.52-1.14-.98-1.28-1.57-.22-.92-.06-1.93-.06-2.9.01,0,.03,0,.04,0Z"/>
  <path class="cls-1" d="m95.53,45.55c1.04,0,2.12-.16,3.11.06.53.12.91.9,1.35,1.38-.49.42-.96,1.17-1.48,1.21-1.94.15-3.92.17-5.86,0-.55-.05-1.04-.91-1.55-1.39.56-.43,1.07-1.08,1.7-1.24.86-.21,1.81-.05,2.72-.05,0,.01,0,.02,0,.04Z"/>
  <path class="cls-1" d="m87.94,31.2c-.52-.48-1.09-.78-1.26-1.24-.14-.36.06-1.13.37-1.33,1.8-1.16,3.63-2.28,5.54-3.24.39-.2,1.23.17,1.66.53.22.18.15,1.19-.1,1.36-1.98,1.34-4.04,2.57-6.2,3.91Z"/>
  <path class="cls-1" d="m37.69,10.31c.27.21.8.44,1.05.85.99,1.59,1.98,3.2,2.76,4.89.24.52-.19,1.34-.31,2.02-.66-.26-1.59-.32-1.93-.8-1.08-1.52-1.99-3.18-2.86-4.83-.55-1.05.08-2.16,1.29-2.12Z"/>
  <path class="cls-1" d="m48.72,56.57c.15-1.15.17-2.68.59-4.1.64-2.17-.05-3.72-1.65-5.13-1.02-.9-1.97-1.91-2.82-2.97-.48-.6-1.13-1.6-.92-2.06.26-.56,1.31-.9,2.07-1.07,1.64-.38,3.32-.59,4.99-.88,1.2-.2,2.1-.7,2.66-1.91.76-1.65,1.68-3.23,2.6-4.79,1.21-2.06,2.13-2.08,3.29-.07.98,1.69,1.78,3.48,2.83,5.12.43.66,1.26,1.26,2.02,1.45,1.88.49,3.85.65,5.75,1.11.67.16,1.51.66,1.75,1.22.18.42-.41,1.24-.77,1.81-.27.43-.72.75-1.09,1.12q-4.21,4.21-3.16,10.11c.07.38.27.78.22,1.14-.1.72-.1,1.76-.55,2.06-.47.31-1.42-.08-2.16-.17-.06,0-.13-.04-.18-.08-4.06-2.75-7.99-3.2-12.26-.12-2.23,1.61-3.34.87-3.22-1.77Zm-.89-12.95c4.36,3.03,5.61,6.82,3.8,11.7,1.83-.68,3.22-1.52,4.72-2.02.93-.31,2.1-.36,3.03-.08,1.55.48,3,1.32,4.68,2.11-.1-1.13-.05-2-.27-2.8-.71-2.61-.4-4.81,1.96-6.51.81-.59,1.39-1.49,2.58-2.8-5.74.65-8.86-1.93-10.54-7.04-1.33,5.33-4.7,7.45-9.97,7.44Z"/>
</svg>