<?xml version="1.0" encoding="UTF-8"?>
<svg id="Layer_1" data-name="Layer 1" xmlns="http://www.w3.org/2000/svg" viewBox="0 0 100 100">
  <path d="m36.23,80.51c-14.28-9.09-16.37-27.94-5.95-39.66,10.26-11.55,27.79-12.05,38.41-1.09,5.82,6,8.33,13.25,7.31,21.57-1.02,8.27-5.32,14.56-12.25,19.17,1.32,1.59,1.88,3.33,1.37,5.33-.36,1.42-1.1,2.65-2.38,3.3-1.03.52-1.11,1.21-1.13,2.17-.05,3.49-1.62,6.15-4.68,7.81-.93.51-2.03.89-3.08.95-2.51.14-5.05.23-7.55.03-4.51-.37-7.88-4.12-7.91-8.64,0-1.1-.21-1.78-1.26-2.42-2.45-1.5-3.61-5.34-.9-8.53Zm13.74-1.72c3.13,0,6.27.01,9.4-.01.45,0,.97-.08,1.35-.3,7.94-4.47,12.22-11.29,12.28-20.37.09-14.04-12.34-24.69-26.25-22.8-9.71,1.32-17.78,9.09-19.44,18.69-1.73,9.98,3.06,19.83,11.91,24.46.4.21.9.32,1.35.32,3.13.03,6.27.01,9.4.01Zm-.08,8.17c3.13,0,6.27.02,9.4,0,1.75-.01,2.8-1.02,2.79-2.57-.01-1.5-1.16-2.47-2.89-2.47-6.13,0-12.27,0-18.4,0-1.73,0-2.86.97-2.89,2.48-.03,1.53,1.06,2.56,2.79,2.57,3.07.02,6.13,0,9.2,0Zm-8.21,3.24c-.55,3.63,1.82,6.66,5.34,6.8,1.97.08,3.95.08,5.92,0,3.57-.13,6.15-3.46,5.31-6.8h-16.57Z"/>
  <path d="m41.86,7.88c.95,0,1.91-.04,2.86.02.6.04.84-.22,1-.75.54-1.75,1.12-3.5,1.69-5.24.45-1.37,1.33-2.1,2.56-2.12,1.25-.02,2.18.73,2.64,2.15.55,1.68,1.14,3.35,1.62,5.05.21.74.57.93,1.29.91,1.8-.05,3.61-.02,5.42-.01,1.36,0,2.3.65,2.67,1.8.38,1.16,0,2.19-1.12,3.02-1.5,1.12-3.01,2.23-4.54,3.3-.5.35-.61.67-.4,1.26.61,1.73,1.15,3.49,1.71,5.23.44,1.39.14,2.45-.89,3.17-1.02.72-2.04.69-3.21-.15-1.47-1.05-2.95-2.08-4.37-3.19-.61-.48-1.01-.42-1.59.03-1.4,1.08-2.86,2.09-4.3,3.12-1.23.88-2.25.92-3.29.17-1.01-.73-1.3-1.78-.85-3.19.54-1.68,1.04-3.38,1.66-5.04.28-.77.08-1.14-.55-1.57-1.49-1.02-2.93-2.1-4.38-3.18-1.11-.82-1.47-1.88-1.07-3.03.4-1.16,1.3-1.76,2.69-1.77.92,0,1.84,0,2.76,0Zm1.01,16.04c.56-.36.87-.55,1.15-.76,1.35-.98,2.7-1.96,4.05-2.94,1.45-1.05,2.42-1.04,3.89.03,1.35.98,2.7,1.97,4.05,2.94.28.2.58.38,1.12.74-.18-.64-.25-.96-.35-1.27-.54-1.65-1.08-3.29-1.62-4.94-.5-1.57-.2-2.48,1.13-3.46,1.48-1.09,2.97-2.17,4.46-3.25.2-.15.45-.23.68-.35-.08-.12-.16-.24-.24-.36-2.03,0-4.06,0-6.09,0-1.68,0-2.5-.59-3.03-2.19-.56-1.68-1.1-3.36-1.65-5.04-.1-.29-.23-.57-.45-1.07-.21.55-.32.83-.41,1.12-.54,1.65-1.07,3.3-1.62,4.94-.55,1.66-1.36,2.24-3.09,2.24-1.29,0-2.59,0-3.88,0-.73,0-1.46,0-2.18,0-.03.09-.06.19-.08.28.25.19.5.39.75.58,1.43,1.04,2.87,2.08,4.29,3.13,1.29.95,1.59,1.87,1.11,3.38-.53,1.65-1.08,3.3-1.61,4.95-.11.34-.19.69-.37,1.32Z"/>
  <path d="m78.28,34.04c-1.2.87-2.35,1.72-3.52,2.55-.97.69-1.92.72-2.75.15-.9-.64-1.16-1.5-.78-2.71.34-1.07.64-2.16,1.06-3.19.3-.75.11-1.16-.55-1.57-.95-.6-1.83-1.3-2.73-1.97-.96-.72-1.28-1.59-.97-2.58.29-.96,1.1-1.51,2.28-1.53,1.19-.02,2.39-.04,3.58,0,.61.02.92-.16,1.09-.76.34-1.18.74-2.33,1.14-3.49.39-1.13,1.11-1.67,2.18-1.65,1.1.02,1.78.61,2.12,1.61.39,1.12.76,2.26,1.09,3.4.18.64.45.95,1.2.9,1.19-.09,2.38-.03,3.58-.01,1.14.02,1.92.57,2.23,1.59.3,1-.05,1.81-.85,2.43-.95.72-1.89,1.47-2.89,2.1-.7.44-.77.87-.48,1.59.42,1.07.71,2.2,1.08,3.29.35,1.05.04,1.89-.8,2.52-.87.64-1.78.59-2.65-.03-1.19-.85-2.37-1.71-3.64-2.63Zm-4.65.39c1.14-.82,2.06-1.49,2.99-2.15,1.3-.93,2.04-.93,3.33,0,.91.66,1.82,1.32,2.82,2.05,0-.24.02-.31,0-.37-.31-.97-.61-1.95-.92-2.92-.53-1.65-.33-2.3,1.06-3.33.88-.65,1.76-1.29,2.64-1.94-1.21-.2-2.32-.18-3.44-.2-1.51-.02-2.17-.51-2.64-1.92-.37-1.1-.73-2.21-1.18-3.56-.37,1.14-.66,2.04-.96,2.94-.75,2.26-1.16,2.55-3.53,2.54-.89,0-1.78,0-2.67,0,.87.9,1.77,1.54,2.67,2.21,1.21.9,1.45,1.64.99,3.1-.34,1.09-.7,2.18-1.14,3.54Z"/>
  <path d="m21.71,34.04c-1.17.85-2.27,1.65-3.37,2.45-1.11.8-2.04.87-2.91.24-.91-.65-1.14-1.58-.72-2.92.34-1.07.68-2.14,1.07-3.19.2-.54.1-.86-.38-1.19-1.01-.69-2-1.42-2.97-2.16-.97-.74-1.27-1.6-.93-2.57.35-1.01,1.08-1.51,2.28-1.53,1.23-.02,2.45-.03,3.68,0,.53.02.79-.14.94-.67.34-1.18.74-2.33,1.14-3.49.42-1.21,1.14-1.75,2.23-1.74,1.05.02,1.74.56,2.13,1.72.39,1.16.79,2.32,1.14,3.49.15.51.41.7.94.69,1.26-.03,2.52,0,3.78,0,1.09,0,1.85.52,2.17,1.52.32,1,.02,1.88-.85,2.53-1.04.77-2.11,1.5-3.12,2.31-.23.18-.38.69-.31.97.32,1.21.76,2.4,1.13,3.6.35,1.14.09,2.01-.79,2.62-.89.61-1.8.55-2.66-.06-1.19-.85-2.37-1.72-3.62-2.62Zm-7.17-8.45c-.02.08-.03.15-.05.23.9.66,1.81,1.31,2.71,1.99,1.23.92,1.46,1.65,1,3.09-.35,1.09-.7,2.17-1.06,3.27.14.02.18.05.2.03.91-.65,1.82-1.3,2.73-1.95,1.23-.88,2-.89,3.25,0,.94.67,1.87,1.35,3.03,2.18-.44-1.36-.79-2.42-1.13-3.48-.48-1.5-.24-2.24,1.02-3.18.89-.66,1.78-1.3,2.67-1.95-1.17-.23-2.28-.21-3.38-.23-1.49-.02-2.18-.52-2.65-1.91-.38-1.12-.74-2.24-1.18-3.56-.43,1.29-.79,2.38-1.15,3.46-.5,1.49-1.13,1.97-2.68,2-1.11.02-2.22,0-3.33,0Z"/>
  <path d="m85.93,47.3q2.11,0,2.75-1.98c.14-.42.28-.84.41-1.26.31-1.01.91-1.66,2.03-1.69,1.02-.02,1.65.48,2.06,1.64.31.9.57,1.82.94,2.7.11.26.48.54.76.56,1.02.07,2.04.03,3.06.03.97,0,1.62.48,1.94,1.37.32.91.06,1.69-.68,2.28-.83.65-1.72,1.23-2.53,1.9-.21.17-.35.62-.28.88.25.99.59,1.95.92,2.92.31.93.02,1.69-.71,2.27-.75.59-1.57.63-2.37.09-.85-.57-1.68-1.16-2.49-1.79-.42-.32-.73-.34-1.16,0-.74.6-1.53,1.13-2.31,1.69-.8.58-1.63.66-2.46.08-.84-.58-1.04-1.41-.79-2.34.24-.88.5-1.77.86-2.61.29-.68.1-1.05-.48-1.42-.77-.5-1.5-1.06-2.23-1.62-.79-.6-1.07-1.4-.73-2.35.32-.9.99-1.35,1.96-1.35.51,0,1.02,0,1.53,0Zm10.81,2.63c-.09-.08-.18-.16-.27-.23-.73,0-1.46.02-2.19,0-1.3-.04-1.92-.51-2.33-1.73-.24-.72-.47-1.44-.79-2.38-.28.84-.49,1.44-.69,2.05-.57,1.72-1.06,2.07-2.91,2.08-.58,0-1.16,0-1.74,0,.98,1,2.25,1.76,2.58,2.81.33,1.04-.29,2.38-.5,3.69.62-.44,1.19-.86,1.77-1.27,1.15-.81,1.83-.81,2.97,0,.61.43,1.21.87,1.82,1.31.11-.01.21-.03.32-.04-1.81-2.85-1.16-4.94,1.96-6.27Z"/>
  <path d="m3.82,53.19c-.92-.67-1.82-1.34-2.72-1.99-.85-.61-1.32-1.37-1-2.45.29-.97,1.02-1.42,2.3-1.45,1.08-.02,2.45.34,3.18-.19.72-.52.82-1.92,1.17-2.94.43-1.24,1.05-1.79,2.05-1.81,1.05-.02,1.7.55,2.13,1.83.33,1,.67,1.99,1.04,3.1,1.12,0,2.23.02,3.34,0,1.07-.03,1.87.35,2.25,1.38.35.94,0,1.78-1.01,2.54-.71.53-1.47,1-2.13,1.58-.25.22-.4.74-.33,1.07.18.83.51,1.62.77,2.43.39,1.23.2,2.07-.62,2.67-.83.61-1.66.56-2.71-.19-.69-.49-1.4-.97-2.06-1.51-.44-.36-.78-.39-1.24-.01-.74.6-1.53,1.13-2.31,1.68-.81.57-1.65.64-2.46.03-.83-.62-1.07-1.43-.72-2.44.38-1.09.71-2.19,1.08-3.34Zm8.41,2.86c-.21-.64-.41-1.27-.62-1.91-.47-1.44-.27-2.06.97-2.99.57-.43,1.14-.85,1.7-1.28.04-.13.08-.26.11-.39-3.55,1.07-5.04-.67-5.51-3.83-.36.85-.6,1.56-.83,2.27-.42,1.28-1.04,1.75-2.4,1.78-.72.02-1.44,0-2.16,0,.52.64,1.07,1.03,1.61,1.44,1.2.9,1.41,1.56.94,3-.22.68-.42,1.35-.63,2,1.16-.62,2.24-1.67,3.34-1.68,1.12-.01,2.25.99,3.46,1.59Z"/>
</svg>