<?xml version="1.0" encoding="UTF-8"?>
<svg id="Layer_1" data-name="Layer 1" xmlns="http://www.w3.org/2000/svg" viewBox="0 0 100 100">
  <defs>
    <style>
      .cls-1 {
        stroke: #fff;
        stroke-miterlimit: 10;
        stroke-width: .5px;
      }

      .cls-2 {
        fill: none;
      }
    </style>
  </defs>
  <path class="cls-2" d="m46.82,13.19c.37,1.23-.25,2.75-.49,4.6,2.54-2.8,4.99-2.71,7.69-.42-1.4-3.24-.61-5.6,2.66-7.26q-4.94-.7-6.38-4.68c-.79,1.45-1.19,3.01-2.19,3.77-.99.74-2.6.67-3.95.95.93,1,2.31,1.87,2.66,3.04Z"/>
  <path class="cls-2" d="m66.38,78.62c-1.51.1-1.6,1.1-1.92,2.13-1.03,3.33-1.49,7.1-5.96,7.99.95,2.08,1.81,3.98,2.81,6.2,1.06-1.81,2.01-3.26,2.78-4.8.64-1.3,1.54-1.73,2.92-1.47,1.7.32,3.41.59,5.63.96-1.51-3.32-2.85-6.29-4.22-9.25-.4-.86-.59-1.86-2.03-1.76Z"/>
  <path class="cls-2" d="m50.9,60.36c-1.04,1.02-2.12,2.58-3.31,2.7-1.07.11-2.27-1.48-3.49-2.17-.48-.27-1.18-.14-1.79-.19.14.58.11,1.31.46,1.72.9,1.08,2.03,1.97,2.95,3.04,1.12,1.31,2.05,1.11,3.15-.03,2.79-2.91,5.65-5.76,8.46-8.65.4-.42.69-.95,1.06-1.48-.28-.36-.49-.82-.67-.81-.49.03-1.11.11-1.43.43-1.83,1.78-3.57,3.66-5.39,5.45Z"/>
  <path class="cls-2" d="m50.29,46.92c-7.61.08-13.52,6.02-13.5,13.57.02,7.39,6.08,13.39,13.48,13.37,7.27-.03,13.26-6.06,13.28-13.37.02-7.41-6.08-13.65-13.27-13.57Zm10.99,7.07c.63,1.78.04,3.33-1.2,4.6-3.29,3.35-6.62,6.68-9.99,9.96-1.71,1.66-3.95,1.64-5.79-.02-1.49-1.35-2.91-2.8-4.28-4.27-1.65-1.78-1.59-4.34.05-5.95,1.63-1.6,4.15-1.58,5.98.05.35.31.7.61,1.76,1.54,2.31-2.62,4.44-5.42,6.97-7.8,2.17-2.04,5.51-.9,6.5,1.9Z"/>
  <path class="cls-2" d="m26.71,32.91q-.67-4.19,2.46-8.02c-3.95.97-5.6-1-6.36-4.39-.53,3.63-2.65,5.05-6.24,4.83,3.29,1.73,3.66,4.17,2.39,7.36,2.67-2.63,5.18-2.31,7.75.22Z"/>
  <path class="cls-2" d="m36.44,82.67c-.29-.96-.4-2.01-.86-2.88-.27-.52-1.02-.99-1.62-1.07-.47-.07-1.29.36-1.5.79-1.61,3.23-3.12,6.52-4.78,10.08,2.1-.33,3.94-.57,5.76-.91,1.23-.23,2.05.13,2.66,1.25.86,1.57,1.81,3.09,2.9,4.93,1.09-2.25,1.99-4.1,2.96-6.11-3.63-.56-4.68-3.23-5.52-6.07Z"/>
  <path class="cls-2" d="m73.66,54.91c-.39-.25-.83-.46-1.27-.61-4.17-1.47-6.86-3.82-5.2-8.75,0-.54,0-1.08,0-1.61-.04-2.63-.31-2.89-2.99-2.51-1.32.19-2.62.53-3.91.84-3.17.76-3.69.56-5.61-2.01-1-1.34-2.11-2.61-3.15-3.92-.89-1.12-1.81-1.05-2.67-.02-1.28,1.54-2.56,3.09-3.74,4.71-1.1,1.51-2.46,1.92-4.23,1.44-1.68-.46-3.38-.9-5.1-1.16-2.01-.31-2.58.22-2.62,2.24-.03,1.61.02,3.23.11,4.84.15,2.77-.25,3.47-2.76,4.74-1.49.75-2.98,1.52-4.44,2.33-1.41.78-1.39,1.89-.46,3,1.08,1.28,2.17,2.58,3.41,3.71,1.61,1.47,1.98,3.07,1.07,5.03-.67,1.46-1.37,2.92-1.89,4.44-.75,2.19-.33,2.92,1.97,3.35,1.84.35,3.72.49,5.58.76,1.49.21,2.37,1.05,2.76,2.53.44,1.67.97,3.33,1.52,4.96.76,2.25,1.69,2.58,3.76,1.34,1.15-.69,2.25-1.45,3.35-2.22,2.43-1.71,3.32-1.72,5.82-.11,1.46.94,2.93,1.87,4.43,2.73,1.08.62,2.02.29,2.46-.84.64-1.62,1.19-3.27,1.65-4.95.75-2.69,1.69-3.5,4.5-3.75,1.4-.12,2.81-.21,4.19-.47,2.35-.45,2.69-1.06,1.91-3.32-.52-1.52-1.07-3.05-1.82-4.45-1.04-1.92-.6-3.41.87-4.85,1.1-1.08,2.16-2.21,3.14-3.4,1.53-1.86,1.36-2.76-.64-4.03Zm-23.55,22.13c-9.16,0-16.6-7.51-16.55-16.69.05-9.25,7.41-16.53,16.67-16.51,9.25.02,16.56,7.37,16.55,16.63-.01,9.17-7.47,16.58-16.67,16.58Z"/>
  <path class="cls-2" d="m77.35,20.68c-.38,3.8-2.82,4.65-6.07,4.69,3.29,1.71,3.73,4.12,2.33,7.27,2.62-2.22,5.1-2.61,7.74.05-1.15-3.16-.95-5.66,2.4-7.36-3.56.34-5.39-1.38-6.39-4.64Z"/>
  <path class="cls-1" d="m75.99,52.72c-1.37-.95-2.88-1.73-4.41-2.41-1.03-.45-1.41-.96-1.3-2.11.17-1.74.18-3.5.11-5.24-.14-3.42-2.08-5.17-5.5-4.88-1.72.14-3.48.44-5.1,1.01-1.4.49-2.04-.03-2.8-1.03-1.22-1.59-2.45-3.22-3.93-4.55-2-1.79-4.21-1.68-6.12.2-1.33,1.31-2.53,2.79-3.58,4.33-.77,1.13-1.48,1.45-2.81,1.03-1.46-.47-3.01-.75-4.54-.92-3.97-.45-6,1.34-6.08,5.31-.03,1.61.17,3.24.04,4.84-.06.69-.53,1.57-1.09,1.94-1.51.99-3.25,1.62-4.74,2.62-2.78,1.88-3.19,4.6-1.27,7.3.35.49.65,1.08,1.13,1.41,3.12,2.23,3.26,4.68,1.59,8.12-2.2,4.53-1.11,6.51,3.42,8.43.1.04.15.21.25.35-1.84,4-3.7,8.01-5.53,12.04-.87,1.93-.22,2.91,1.84,2.68,2.13-.24,4.27-.54,6.34-1.05,1.25-.31,1.8.02,2.36,1.09,1,1.9,2.11,3.74,3.27,5.55,1.04,1.63,2.23,1.6,3.24-.03.42-.68.7-1.45,1.04-2.18,1.35-2.92,2.43-6.01,4.14-8.71.93-1.47,2.92-3.14,4.42-3.12,1.4.01,3.23,1.87,4.09,3.36,1.93,3.36,3.33,7.01,5.02,10.51.87,1.81,2.25,1.85,3.29.16,1.05-1.71,2.09-3.43,3.02-5.21.64-1.23,1.33-1.79,2.83-1.39,1.87.5,3.82.75,5.75,1.01,2.4.32,3.12-.68,2.18-2.91-.28-.68-.66-1.32-.97-1.99-1.54-3.33-3.07-6.66-4.61-9.99,4.88-2.01,5.58-3.61,3.87-8.46-.33-.94-.74-1.87-1.2-2.75-.67-1.29-.62-2.29.6-3.32,1.11-.95,2.05-2.13,2.94-3.31,2.27-3.01,1.88-5.59-1.22-7.73Zm-37,42.13c-1.09-1.84-2.04-3.36-2.9-4.93-.61-1.11-1.44-1.47-2.66-1.25-1.82.34-3.66.58-5.76.91,1.67-3.55,3.17-6.84,4.78-10.08.21-.43,1.03-.85,1.5-.79.59.08,1.34.55,1.62,1.07.46.87.57,1.91.86,2.88.84,2.84,1.89,5.51,5.52,6.07-.97,2.01-1.87,3.86-2.96,6.11Zm33.64-5.22c-2.21-.37-3.93-.64-5.63-.96-1.37-.26-2.27.17-2.92,1.47-.76,1.54-1.72,2.99-2.78,4.8-1.01-2.22-1.87-4.11-2.81-6.2,4.47-.9,4.93-4.66,5.96-7.99.32-1.03.4-2.03,1.92-2.13,1.44-.09,1.63.9,2.03,1.76,1.37,2.96,2.71,5.93,4.22,9.25Zm1.67-30.7c-.98,1.19-2.04,2.32-3.14,3.4-1.47,1.44-1.9,2.92-.87,4.85.76,1.41,1.3,2.94,1.82,4.45.78,2.26.44,2.86-1.91,3.32-1.38.27-2.79.35-4.19.47-2.81.24-3.75,1.06-4.5,3.75-.47,1.67-1.02,3.33-1.65,4.95-.45,1.13-1.39,1.46-2.46.84-1.5-.87-2.97-1.79-4.43-2.73-2.49-1.61-3.38-1.6-5.82.11-1.1.77-2.2,1.54-3.35,2.22-2.07,1.24-3,.9-3.76-1.34-.55-1.64-1.08-3.29-1.52-4.96-.39-1.48-1.27-2.32-2.76-2.53-1.86-.26-3.74-.41-5.58-.76-2.29-.43-2.72-1.15-1.97-3.35.52-1.52,1.22-2.98,1.89-4.44.91-1.96.54-3.56-1.07-5.03-1.24-1.13-2.33-2.42-3.41-3.71-.94-1.11-.96-2.22.46-3,1.46-.81,2.95-1.57,4.44-2.33,2.51-1.27,2.91-1.97,2.76-4.74-.09-1.61-.13-3.23-.11-4.84.04-2.02.61-2.55,2.62-2.24,1.72.27,3.42.71,5.1,1.16,1.77.48,3.13.07,4.23-1.44,1.18-1.62,2.46-3.17,3.74-4.71.86-1.03,1.78-1.1,2.67.02,1.04,1.31,2.14,2.58,3.15,3.92,1.92,2.57,2.44,2.77,5.61,2.01,1.3-.31,2.6-.65,3.91-.84,2.68-.38,2.95-.12,2.99,2.51,0,.54,0,1.08,0,1.61-1.66,4.93,1.03,7.28,5.2,8.75.44.16.87.36,1.27.61,2,1.27,2.17,2.17.64,4.03Z"/>
  <path class="cls-1" d="m42.53,13.17c.94.69,1.16,1.48.8,2.58-.49,1.46-.85,2.96-1.21,4.23.06,1.87,1.7,2.85,3.15,2.04,1.34-.75,2.56-1.73,3.94-2.41.57-.28,1.51-.28,2.09,0,1.43.7,2.68,1.76,4.12,2.44,1.44.68,2.91-.42,2.79-2-.05-.71-.32-1.43-.59-2.11-1.01-2.54-1.01-4.72,1.86-6.09.59-.28,1.22-.72,1.54-1.26.41-.69.83-1.64.67-2.33-.13-.55-1.09-1.11-1.78-1.27-1.09-.25-2.27-.3-3.4-.22-1.72.13-2.73-.47-3.11-2.22-.21-.96-.53-1.99-1.1-2.77C51.72,1,50.81.05,50,0c-.64-.04-1.54,1.07-1.99,1.86-.62,1.09-.81,2.43-1.42,3.53-.31.56-1.08,1.11-1.71,1.21-1.31.21-2.72-.06-4.01.22-.85.19-1.91.87-2.22,1.6-.24.56.37,1.72.92,2.32.84.93,1.92,1.66,2.94,2.41Zm5.58-3.98c1-.75,1.4-2.32,2.19-3.77q1.44,3.98,6.38,4.68c-3.27,1.66-4.06,4.01-2.66,7.26-2.69-2.29-5.15-2.38-7.69.42.25-1.85.86-3.37.49-4.6-.35-1.17-1.73-2.04-2.66-3.04,1.35-.29,2.96-.21,3.95-.95Z"/>
  <path class="cls-1" d="m89.03,23.52c-.68-2.11-2.66-1.39-4.16-1.48-3.3-.21-3.3-.16-4.44-3.22-.3-.81-.53-1.7-1.04-2.37-.43-.57-1.23-1.24-1.82-1.21-.7.04-1.62.65-1.98,1.28-.69,1.2-1.11,2.58-1.53,3.92-.33,1.04-.85,1.57-2.01,1.51-1.07-.06-2.19-.1-3.21.15-1,.25-2.27.65-2.77,1.42-.72,1.1.18,2.11,1.19,2.83.87.63,1.67,1.34,2.53,1.98.98.72,1.32,1.52.86,2.75-.51,1.37-.8,2.83-1.11,3.94-.03,1.99,1.49,2.99,3.06,2.27.78-.36,1.47-.94,2.19-1.42,2.71-1.8,2.67-1.75,5.45.04,1.34.86,2.72,2.5,4.47,1.18,1.67-1.25.49-3.01.13-4.48-.8-3.27-.82-3.2,1.65-5.25,1.2-1,3.23-1.68,2.53-3.83Zm-7.69,9.15c-2.64-2.65-5.11-2.27-7.74-.05,1.4-3.15.96-5.55-2.33-7.27,3.26-.04,5.69-.88,6.07-4.69.99,3.27,2.83,4.98,6.39,4.64-3.35,1.7-3.55,4.2-2.4,7.36Z"/>
  <path class="cls-1" d="m24.14,34.94c1.07.89,2.32,1.62,3.6,2.19.64.28,1.77.35,2.2-.03.54-.47,1.02-1.7.77-2.26-1.82-3.97-1.02-6.89,2.91-9.02.54-.29.9-1.78.63-2.42-.26-.63-1.39-1.18-2.19-1.27-1.65-.19-3.34-.06-5.1-.06-.71-1.88-1.16-3.52-1.95-4.97-.45-.81-1.44-1.72-2.26-1.8-.63-.06-1.54,1.02-2.02,1.78-.56.89-.81,1.97-1.17,2.99-.43,1.23-1.02,2.1-2.59,1.92-1.12-.13-2.31-.11-3.41.14-.81.19-1.99.72-2.15,1.33-.2.75.27,1.91.82,2.57.8.95,1.9,1.68,2.96,2.38.94.62,1.19,1.29.82,2.36-.44,1.26-.88,2.57-1,3.88-.08.82.19,2.05.75,2.45.56.4,1.78.19,2.55-.13,1.09-.46,2.05-1.25,3.04-1.95.93-.65,1.72-.97,2.79-.07Zm-5.18-2.25c1.27-3.19.9-5.63-2.39-7.36,3.59.21,5.71-1.2,6.24-4.83.76,3.4,2.41,5.37,6.36,4.39q-3.13,3.83-2.46,8.02c-2.57-2.53-5.08-2.84-7.75-.22Z"/>
  <path class="cls-1" d="m50.24,43.83c-9.27-.02-16.62,7.26-16.67,16.51-.05,9.19,7.39,16.69,16.55,16.69,9.21,0,16.66-7.4,16.67-16.58.01-9.26-7.3-16.61-16.55-16.63Zm.04,30.03c-7.41.03-13.46-5.97-13.48-13.37-.02-7.55,5.89-13.49,13.5-13.57,7.19-.07,13.29,6.17,13.27,13.57-.02,7.31-6.01,13.34-13.28,13.37Z"/>
  <path class="cls-1" d="m54.78,52.1c-2.53,2.38-4.66,5.18-6.97,7.8-1.06-.93-1.41-1.23-1.76-1.54-1.83-1.63-4.34-1.65-5.98-.05-1.64,1.61-1.7,4.17-.05,5.95,1.37,1.48,2.78,2.92,4.28,4.27,1.84,1.66,4.07,1.68,5.79.02,3.37-3.27,6.7-6.6,9.99-9.96,1.24-1.26,1.83-2.82,1.2-4.6-.99-2.8-4.34-3.94-6.5-1.9Zm3.61,3.2c-.37.53-.65,1.06-1.06,1.48-2.81,2.89-5.67,5.74-8.46,8.65-1.1,1.15-2.03,1.34-3.15.03-.92-1.07-2.05-1.96-2.95-3.04-.34-.41-.32-1.14-.46-1.72.6.05,1.31-.08,1.79.19,1.22.69,2.42,2.28,3.49,2.17,1.19-.12,2.27-1.68,3.31-2.7,1.83-1.79,3.56-3.67,5.39-5.45.32-.31.94-.4,1.43-.43.18-.01.38.45.67.81Z"/>
</svg>