<?xml version="1.0" encoding="UTF-8"?>
<svg id="Layer_1" data-name="Layer 1" xmlns="http://www.w3.org/2000/svg" viewBox="0 0 100 100">
  <path d="m79.94,9.67c-1.93,0-3.74.07-5.54-.01-6.75-.29-13.03-2.31-19.08-5.18-1.19-.56-2.38-1.14-3.52-1.81-.67-.39-1.18-.38-1.87-.02-5.51,2.86-11.2,5.28-17.37,6.27-2.78.44-5.63.46-8.45.65-.67.05-1.35,0-2.11,0-.03.35-.08.67-.08,1,0,6.53-.06,13.07.03,19.6.09,7.09,2.03,13.69,5.52,19.85.11.2.22.39.33.59.39.7.32,1.33-.4,1.75-.7.4-1.27.09-1.61-.55-.93-1.77-1.92-3.51-2.71-5.34-2.36-5.47-3.52-11.2-3.5-17.18.03-6.84,0-13.67,0-20.51,0-1.48.29-1.85,1.7-1.72,9.9.96,18.87-2,27.46-6.49,1.55-.81,2.78-.8,4.31.05,5.62,3.1,11.54,5.48,17.94,6.28,2.86.36,5.79.19,8.69.25.3,0,.6-.06.9-.07,1.3-.05,1.73.32,1.74,1.63.02,3.63.04,7.25.01,10.88-.02,4.12.03,8.24-.16,12.35-.35,7.62-2.72,14.64-6.78,21.09-.44.7-1.03,1.08-1.78.6-.76-.49-.65-1.2-.21-1.89,3.36-5.31,5.5-11.08,6.17-17.33.3-2.73.33-5.5.35-8.25.05-5.47.02-10.95.02-16.5Z"/>
  <path d="m27.6,80.72c-.87.29-1.47-.02-2.05-.73-2.36-2.9-2.37-2.88-.54-6.11,2.11-3.71,4.19-7.43,6.29-11.14,1.13-1.99,2.58-2.53,4.74-1.72,1.27.48,2.52,1.01,3.77,1.54,1.39.6,1.73,1.76.92,3.03-.79,1.24-1.69,2.43-2.31,3.75-.37.78-.3,1.77-.43,2.67.87.06,1.78.31,2.61.16,2.3-.42,4.01-1.85,5.46-3.6,2.18-2.62,4.13-2.95,7.16-1.42,7.32,3.71,13.78,8.69,20.21,13.7,1.51,1.18,1.98,2.79,1.39,4.31-.62,1.58-2.08,2.44-3.98,2.36-.22-.01-.44-.03-.67-.05-.08,2.56-1.52,4.47-4.68,4.38-.09.41-.16.85-.29,1.26-.68,2.19-2.77,3.46-4.88,2.64-2.56-.99-5.02-2.25-7.46-3.51-.35-.18-.6-1.07-.47-1.5.21-.67.88-.86,1.59-.51,2,.97,4,1.94,6.02,2.89,1.83.86,2.31.67,3.09-1.16.13-.3.33-.57.54-.92-2.42-1.4-4.82-2.8-7.23-4.2-.26-.15-.54-.29-.77-.47-.55-.42-.83-1.05-.32-1.55.34-.33,1.15-.58,1.53-.4,1.4.65,2.7,1.5,4.04,2.27,1.34.77,2.67,1.56,4.01,2.33,1.47.84,2.32.47,2.89-1.14.16-.43.51-.8.79-1.21-2.55-1.46-5.17-2.95-7.77-4.47-.62-.36-1.2-.8-1.73-1.26-.59-.51-.75-1.17-.18-1.79.52-.58,1.07-.4,1.71-.02,3.29,1.99,6.6,3.95,9.92,5.87.75.43,1.48.26,1.97-.5.48-.74.08-1.31-.48-1.76-6.5-5.12-13.08-10.12-20.53-13.82-1.28-.64-2.35-.37-3.36.91-1.46,1.83-3.16,3.43-5.4,4.16-1.43.47-3.02.69-4.52.6-1.83-.11-2.79-1.56-2.73-3.4.05-1.67.82-3.04,1.64-4.4.43-.7.89-1.39,1.41-2.2-1.23-.51-2.38-1.08-3.59-1.44-.39-.12-1.18.18-1.38.53-2.45,4.21-4.83,8.45-7.18,12.71-.14.25.1.82.31,1.14.59.92,1.69,1.61,1.22,2.97-.1.07-.2.13-.29.2Z"/>
  <path d="m30.45,17.94c.33,6.85-.67,13.64,1.26,20.27,1.74,5.96,4.86,11.09,9.19,15.51.28.29.7.63.71.97.02.45-.2,1.21-.48,1.29-.46.14-1.27.02-1.55-.31-1.98-2.32-4.07-4.59-5.74-7.13-4-6.09-5.83-12.86-5.73-20.16.05-3.59,0-7.17,0-10.76,0-1.61.16-1.84,1.74-2.01,7.02-.74,13.61-2.93,19.94-5.97.77-.37,1.4-.28,2.13.08,5.44,2.67,11.1,4.7,17.12,5.62,1.04.16,2.09.29,3.15.37,1.04.08,1.59.55,1.58,1.64-.08,5.21.14,10.44-.27,15.62-.65,8.27-4.27,15.31-9.87,21.38-.54.59-1.16.78-1.78.21-.73-.67-.41-1.33.17-1.96,3.26-3.54,5.79-7.53,7.41-12.07,1.24-3.47,1.9-7.06,1.92-10.76.02-3.55-.02-7.1.02-10.65.01-.87-.26-1.12-1.13-1.23-6.58-.78-12.77-2.89-18.74-5.71-.33-.16-.83-.28-1.12-.14-6.3,2.91-12.82,5.09-19.92,5.9Z"/>
  <path d="m52.32,22.26c6,0,10.83,4.83,10.8,10.78-.03,6.07-4.91,10.91-10.99,10.89-5.94-.03-10.77-4.97-10.73-10.99.03-5.92,4.9-10.68,10.92-10.67Zm8.38,10.88c-.02-4.84-3.69-8.56-8.39-8.51-4.9.05-8.55,3.76-8.52,8.66.03,4.52,3.9,8.28,8.48,8.25,4.72-.04,8.45-3.75,8.43-8.4Z"/>
  <path d="m81.1,52.5c.71.54,1.66.94,2.09,1.66,2.92,4.89,5.75,9.83,8.56,14.78.82,1.45.43,2.84-.98,3.72-1.41.87-2.85,1.7-4.31,2.49-1.43.77-2.92.4-3.73-.98-2.87-4.92-5.72-9.85-8.54-14.8-.76-1.33-.44-2.8.8-3.59,1.52-.97,3.11-1.84,4.7-2.72.35-.19.78-.24,1.18-.35.07-.07.15-.14.22-.2Zm-.1,2.5c-1.54.89-2.98,1.69-4.37,2.58-.19.12-.25.76-.11,1.01,2.64,4.66,5.33,9.29,7.99,13.93.34.59.68.7,1.26.32.99-.63,1.98-1.27,3.03-1.75,1.02-.47.96-.98.46-1.83-2.15-3.63-4.25-7.3-6.37-10.95-.62-1.07-1.23-2.14-1.9-3.31Z"/>
  <path d="m30.29,59.29c-.11.27-.25.78-.5,1.23-2.74,4.78-5.48,9.55-8.25,14.3-1.03,1.77-2.43,2.14-4.2,1.15-1.32-.74-2.62-1.49-3.91-2.27-1.51-.91-1.92-2.33-1.04-3.87,2.8-4.91,5.63-9.81,8.48-14.69.84-1.44,2.35-1.78,3.81-.97,1.38.77,2.75,1.57,4.12,2.37.95.56,1.47,1.38,1.49,2.75Zm-11.16,14.97c2.92-5.05,5.77-9.98,8.58-14.92.1-.17-.14-.72-.36-.86-1.14-.73-2.35-1.36-3.51-2.07-.55-.34-.87-.23-1.18.3-2.69,4.68-5.39,9.35-8.05,14.04-.13.24.04.9.26,1.04,1.33.85,2.73,1.6,4.25,2.47Z"/>
  <path d="m55.7,58.21c3.18-.11,6.59.73,10.02,1.49.86.19,1.8.13,2.69.03,1.68-.19,3.02.35,3.86,1.79,2.39,4.15,4.74,8.33,7.05,12.52.8,1.46.49,3.13-.7,4.26-.85.8-1.77,1.53-2.68,2.27-.62.51-1.26.55-1.79-.1-.54-.68-.26-1.27.33-1.77.75-.63,1.5-1.26,2.26-1.89.65-.54.76-1.17.35-1.91-2.26-4.01-4.49-8.04-6.8-12.02-.24-.41-.99-.78-1.46-.73-2.04.21-3.96-.15-5.92-.65-4.26-1.1-8.58-1.27-12.91-.49-2.18.4-4.16,1.33-5.96,2.63-.71.51-1.44.87-2.05-.01-.61-.88.02-1.45.71-1.95,3.77-2.76,8.09-3.54,13.01-3.49Z"/>
  <path d="m49.77,93.7c-.38.92-.68,1.88-1.16,2.74-.44.78-1.07,1.45-1.64,2.15-1.34,1.64-3.11,1.85-4.78.59-1.59-1.2-2.04-3.36-.98-4.92.68-1,1.4-1.97,2.15-2.91,1.04-1.29,2.47-1.73,3.81-1.26,1.43.51,2.37,1.9,2.6,3.6Zm-2.27.26c-.46-.68-.68-1.35-1.11-1.53-.32-.13-1.02.27-1.34.63-.68.74-1.32,1.56-1.77,2.45-.2.4-.04,1.14.22,1.56.18.28,1.08.5,1.22.35.96-1.06,1.8-2.22,2.77-3.47Z"/>
  <path d="m41.13,84.95c-1.44.33-1.56.21-2.16-1.18-.22-.5-.7-1.07-1.18-1.19-.34-.09-.97.42-1.28.81-1.29,1.67-2.52,3.39-3.76,5.1-.71.98-.59,1.67.47,2.34.71.45,1.09,1,.62,1.77-.47.77-1.17.65-1.88.26-2.03-1.14-2.65-3.64-1.3-5.53,1.4-1.96,2.84-3.9,4.31-5.82,1.06-1.38,2.32-1.75,3.78-1.2,1.48.55,2.72,2.2,2.66,3.61-.02.35-.2.7-.31,1.05h.03Z"/>
  <path d="m41.1,84.96c1.36.03,2.59.37,3.47,1.52.48.63.77,1.29.08,1.9-.68.59-1.29.32-1.85-.3-.82-.91-1.23-.89-1.96.06-1.01,1.32-2,2.65-2.96,4-.72,1.01-.34,2.02.89,2.31.85.2,1.47.56,1.25,1.51-.23.98-1.05.96-1.83.83-2.5-.43-3.91-3.53-2.5-5.62,1.16-1.72,2.42-3.38,3.72-4.99.43-.53,1.14-.82,1.73-1.22,0,0-.03,0-.03,0Z"/>
  <path d="m27.6,80.72c.1-.07.2-.13.29-.2,1.98-1.57,4.3-1.21,5.49.85.4.69.52,1.39-.27,1.87-.73.45-1.25.11-1.71-.53-.79-1.1-1.38-1.1-2.21-.06-.26.32-.47.69-.72,1.01-.65.83-.47,1.55.34,2.12.71.5,1.13,1.08.53,1.88-.61.81-1.33.49-1.99.02-1.69-1.18-2.12-3.35-1.02-5.1.4-.64.84-1.25,1.26-1.87Z"/>
  <path d="m55.19,100c-2.31-.01-4.02-.61-5.63-1.61-.68-.42-.98-1.01-.58-1.71.44-.77,1.1-.62,1.86-.32,1.27.5,2.59.95,3.93,1.2,1.25.23,2.37-.21,3.17-1.31.47-.64,1.12-.79,1.76-.26.61.5.51,1.11.08,1.71-1.24,1.71-2.96,2.37-4.6,2.31Z"/>
  <path d="m50.42,34.49c1.62-1.56,3.13-3.02,4.65-4.48.24-.24.48-.48.74-.7.53-.46,1.1-.52,1.62-.02.56.54.55,1.17,0,1.7-2.04,2.01-4.1,4.01-6.18,5.99-.55.52-1.18.46-1.72-.07-.83-.82-1.65-1.66-2.45-2.51-.52-.54-.61-1.14-.06-1.7.61-.62,1.23-.44,1.78.11.53.53,1.03,1.08,1.61,1.7Z"/>
</svg>