<?xml version="1.0" encoding="UTF-8"?>
<svg id="Layer_1" data-name="Layer 1" xmlns="http://www.w3.org/2000/svg" viewBox="0 0 100 100">
  <defs>
    <style>
      .cls-1 {
        stroke: #fff;
        stroke-miterlimit: 10;
        stroke-width: .5px;
      }
    </style>
  </defs>
  <path class="cls-1" d="m79.72,44.07l-4.71-.32s-.02,0-.02-.02c-.62-2.46-1.59-4.81-2.9-6.97,0-.01,0-.02.01-.03l3.11-3.55c1.11-1.28,1.04-3.19-.15-4.39l-3.85-3.84c-1.2-1.19-3.11-1.26-4.39-.15l-3.55,3.1s-.02.01-.03.01c-2.17-1.3-4.52-2.28-6.98-2.89-.01,0-.02-.01-.02-.02l-.32-4.71c-.12-1.69-1.52-3-3.21-3h-5.43c-1.69,0-3.09,1.31-3.21,3l-.32,4.71s0,.02-.02.02c-2.46.62-4.81,1.59-6.97,2.9-.01,0-.02,0-.03-.01l-3.55-3.11c-1.28-1.11-3.19-1.04-4.39.15l-3.84,3.85c-1.19,1.2-1.26,3.11-.15,4.39l3.1,3.55s.01.02.01.03c-1.31,2.17-2.28,4.52-2.89,6.98,0,.01-.01.02-.02.02l-4.71.32c-1.69.12-2.99,1.52-3,3.21v5.43c0,1.69,1.31,3.09,3,3.21l4.71.32s.02,0,.02.02c.62,2.46,1.59,4.81,2.9,6.97,0,.01,0,.02-.01.03l-3.11,3.55c-1.11,1.28-1.04,3.19.15,4.39l3.85,3.84c1.2,1.19,3.11,1.26,4.39.15l3.55-3.1s.02-.01.03-.01c2.17,1.31,4.52,2.28,6.98,2.89.01,0,.02.01.02.02l.32,4.71c.12,1.69,1.52,2.99,3.21,3h5.43c1.69,0,3.09-1.31,3.21-3l.32-4.71s0-.02.02-.02c2.46-.61,4.81-1.59,6.97-2.9.01,0,.02,0,.03.01l3.55,3.11c1.28,1.11,3.19,1.04,4.39-.15l3.84-3.85c1.19-1.2,1.26-3.11.15-4.39l-3.1-3.55s-.01-.02-.01-.03c1.3-2.17,2.28-4.52,2.89-6.98,0,0,.01-.02.02-.02l4.71-.32c1.69-.12,3-1.52,3-3.21v-5.43c0-1.69-1.31-3.09-3-3.21Zm-.19,8.64s-.01.03-.03.03l-4.71.32c-1.39.09-2.56,1.07-2.9,2.43-.54,2.15-1.39,4.21-2.53,6.11-.72,1.2-.58,2.72.34,3.77l3.1,3.56s0,.03,0,.04l-3.84,3.84s-.03,0-.04,0l-3.56-3.1c-1.05-.92-2.57-1.06-3.77-.34-1.9,1.14-3.96,2-6.11,2.53-1.35.34-2.34,1.51-2.43,2.9l-.32,4.71s-.01.03-.03.03h-5.43s-.03-.01-.03-.03l-.32-4.71c-.09-1.39-1.07-2.56-2.43-2.9-2.15-.54-4.21-1.39-6.11-2.53-.5-.3-1.07-.46-1.65-.46-.78,0-1.53.28-2.12.8l-3.56,3.1s-.03,0-.04,0l-3.84-3.84s0-.03,0-.04l3.1-3.56c.92-1.05,1.06-2.57.34-3.77-1.14-1.9-2-3.96-2.53-6.11-.34-1.35-1.51-2.33-2.9-2.43l-4.71-.32s-.03-.01-.03-.03v-5.43s.01-.03.03-.03l4.71-.32c1.39-.09,2.56-1.07,2.9-2.43.54-2.15,1.39-4.21,2.53-6.11.72-1.2.58-2.72-.34-3.77l-3.1-3.56s0-.03,0-.04l3.84-3.84s.03,0,.04,0l3.56,3.1c1.05.92,2.57,1.06,3.77.34,1.9-1.14,3.96-1.99,6.11-2.53,1.35-.34,2.33-1.51,2.43-2.9l.32-4.71s.01-.02.03-.03h5.43s.03.01.03.03l.32,4.71c.09,1.39,1.07,2.56,2.43,2.9,2.15.54,4.21,1.39,6.11,2.53,1.2.72,2.72.58,3.77-.34l3.56-3.1s.03,0,.04,0l3.84,3.84s0,.03,0,.04l-3.1,3.56c-.92,1.05-1.06,2.57-.34,3.77,1.14,1.9,2,3.96,2.53,6.11.34,1.35,1.51,2.34,2.9,2.43l4.71.32s.02.01.03.03v5.43Z"/>
  <path class="cls-1" d="m94.37,55.63c3.11,0,5.63-2.52,5.63-5.63s-2.52-5.63-5.63-5.63h-3.77v-8.77h3.77c3.11,0,5.63-2.52,5.63-5.63s-2.52-5.63-5.63-5.63h-3.77v-7.22c0-4.25-3.45-7.7-7.71-7.71h-7.22v-3.77c0-3.11-2.52-5.63-5.63-5.63s-5.63,2.52-5.63,5.63v3.77h-8.77v-3.77c0-3.11-2.52-5.63-5.63-5.63s-5.63,2.52-5.63,5.63v3.77h-8.77v-3.77c0-3.11-2.52-5.63-5.63-5.63s-5.63,2.52-5.63,5.63v3.77h-7.22c-4.25,0-7.7,3.45-7.71,7.71v7.22h-3.77c-3.11,0-5.63,2.52-5.63,5.63s2.52,5.63,5.63,5.63h3.77v8.77h-3.77c-3.11,0-5.63,2.52-5.63,5.63s2.52,5.63,5.63,5.63h3.77v8.77h-3.77c-3.11,0-5.63,2.52-5.63,5.63s2.52,5.63,5.63,5.63h3.77v7.22c0,4.25,3.45,7.7,7.71,7.71h7.22v3.77c0,3.11,2.52,5.63,5.63,5.63,3.11,0,5.63-2.52,5.63-5.63v-3.77h8.77v3.77c0,3.11,2.52,5.63,5.63,5.63,3.11,0,5.63-2.52,5.63-5.63v-3.77h8.77v3.77c0,3.11,2.52,5.63,5.63,5.63,3.11,0,5.63-2.52,5.63-5.63v-3.77h7.22c4.25,0,7.7-3.45,7.71-7.71v-7.22h3.77c3.11,0,5.63-2.52,5.63-5.63s-2.52-5.63-5.63-5.63h-3.77v-8.77h3.77Zm-3.77-28.12h3.77c1.35,0,2.45,1.1,2.45,2.45s-1.09,2.45-2.45,2.45h-3.77v-4.89Zm0,20.04h3.77c1.35,0,2.45,1.1,2.45,2.45s-1.09,2.45-2.45,2.45h-3.77v-4.89ZM9.41,72.48h-3.77c-1.35,0-2.45-1.09-2.45-2.45s1.09-2.45,2.45-2.45h3.77v4.89Zm0-20.04h-3.77c-1.35,0-2.45-1.09-2.45-2.45s1.09-2.45,2.45-2.45h3.77v4.89Zm0-20.04h-3.77c-1.35,0-2.45-1.09-2.45-2.45s1.09-2.45,2.45-2.45h3.77v4.89ZM67.59,5.63c0-1.35,1.09-2.45,2.45-2.45s2.45,1.1,2.45,2.45v3.77h-4.89v-3.77Zm-20.04,0c0-1.35,1.09-2.45,2.45-2.45s2.45,1.1,2.45,2.45v3.77h-4.89v-3.77Zm-20.04,0c0-1.35,1.09-2.45,2.45-2.45s2.45,1.1,2.45,2.45v3.77h-4.89v-3.77Zm4.89,88.73c0,1.35-1.09,2.45-2.45,2.45s-2.45-1.09-2.45-2.45v-3.77h4.89v3.77Zm20.04,0c0,1.35-1.09,2.44-2.44,2.44-1.35,0-2.45-1.09-2.45-2.44v-3.77h4.89v3.77Zm20.04,0c0,1.35-1.09,2.45-2.45,2.45s-2.45-1.09-2.45-2.45v-3.77h4.89v3.77Zm14.92-11.48c0,2.49-2.02,4.51-4.52,4.52H17.11c-2.49,0-4.51-2.02-4.52-4.52V17.11c0-2.49,2.02-4.51,4.52-4.52h65.78c2.49,0,4.51,2.02,4.52,4.52v65.78Zm6.96-15.29c1.35,0,2.45,1.1,2.45,2.45s-1.09,2.45-2.45,2.45h-3.77v-4.89h3.77Z"/>
  <path class="cls-1" d="m50,32.41c-9.7,0-17.59,7.89-17.59,17.59s7.89,17.59,17.59,17.59,17.59-7.89,17.59-17.59-7.89-17.59-17.59-17.59Zm1.59,31.91v-8.17c0-.88-.71-1.59-1.59-1.59h-4.97c-.88,0-1.59.71-1.59,1.59s.71,1.59,1.59,1.59h3.38v6.57c-6.68-.74-11.99-6.04-12.72-12.72h6.07c.42,0,.83-.17,1.13-.47l4.94-4.97c.62-.62.62-1.63,0-2.26-.62-.62-1.63-.62-2.26,0l-4.47,4.5h-5.41c.79-7.2,6.9-12.81,14.32-12.81,7.41,0,13.51,5.61,14.32,12.81h-6.57v-3.38c0-.88-.71-1.59-1.59-1.59s-1.59.71-1.59,1.59v4.97c0,.88.71,1.59,1.59,1.59h8.17c-.74,6.68-6.04,11.99-12.72,12.72Z"/>
</svg>