<?xml version="1.0" encoding="UTF-8"?>
<svg id="Layer_1" data-name="Layer 1" xmlns="http://www.w3.org/2000/svg" viewBox="0 0 100 100">
  <defs>
    <style>
      .cls-1 {
        fill: #fff;
      }
    </style>
  </defs>
  <g>
    <path d="m49.3,83.73c-20.92-.96-36.48-10.72-46.24-29.01-1.67-3.13-1.66-6.34.04-9.54,8.33-15.73,21.27-25.17,38.46-28.08,2.87-.48,5.79-.73,8.68-.73,19,0,36.58,10.42,45.88,27.2,2.48,4.47,2.48,8.55,0,12.83-8.93,15.43-22.39,24.47-40.01,26.88-1.32.18-2.68.25-4.25.32-.79.04-1.64.08-2.56.14Zm.99-61.75c-.65.06-1.35.12-2.1.18-1.78.14-3.8.29-5.8.64-15.1,2.59-26.55,10.88-34.04,24.65-.98,1.81-.97,3.52.04,5.11.48.75.94,1.51,1.4,2.27,1.22,2.01,2.48,4.09,4.04,5.92,9.68,11.36,21.58,17.12,35.37,17.12h0c2.94,0,6-.27,9.1-.79,14.75-2.5,25.98-10.79,33.39-24.62.86-1.61.88-3.2.06-4.72-8.68-16.09-22.19-24.51-41.3-25.74h-.08s-.08,0-.08,0Z"/>
    <path class="cls-1" d="m50.24,15.37v2h0c18.64,0,35.88,10.22,45,26.68,2.32,4.19,2.33,7.85,0,11.85-8.89,15.36-21.74,23.99-39.28,26.39-1.28.17-2.61.24-4.16.31-.78.04-1.62.08-2.52.13-20.52-.95-35.78-10.53-45.35-28.48-1.5-2.82-1.49-5.71.04-8.6,8.18-15.44,20.87-24.71,37.74-27.56,2.81-.48,5.68-.72,8.52-.72v-2m-1.03,63.49c3,0,6.12-.27,9.27-.81,15.07-2.56,26.54-11.02,34.1-25.14,1.01-1.9,1.03-3.86.05-5.67-8.86-16.41-22.63-25.01-42.12-26.27h-.16s-.16,0-.16,0c-.64.06-1.34.12-2.07.17-1.8.14-3.85.3-5.9.65-15.41,2.65-27.1,11.11-34.74,25.15-1.46,2.68-.76,4.81.08,6.12.47.74.93,1.5,1.39,2.26,1.24,2.04,2.52,4.16,4.13,6.05,9.88,11.59,22.03,17.47,36.13,17.47m1.03-63.49c-2.93,0-5.89.24-8.85.74-17.76,3-30.76,12.72-39.17,28.6-1.82,3.45-1.87,7.03-.04,10.48,10.2,19.12,26.35,28.61,47.13,29.54,2.78-.18,4.87-.19,6.93-.47,18.05-2.46,31.61-11.58,40.74-27.37,2.71-4.69,2.63-9.09,0-13.82-9.54-17.21-27.52-27.71-46.75-27.71h0Zm-1.03,61.49c-13.53,0-25.15-5.67-34.61-16.77-2.08-2.44-3.62-5.36-5.36-8.08-.85-1.33-.77-2.7,0-4.09,7.26-13.36,18.28-21.56,33.32-24.14,2.79-.48,5.64-.59,7.83-.81,18.53,1.2,31.93,9.36,40.49,25.22.69,1.28.61,2.52-.06,3.78-7.07,13.21-17.9,21.6-32.67,24.11-3.06.52-6.04.78-8.94.78h0Z"/>
  </g>
  <g>
    <path d="m96.13,27.25c-1.62,0-2.84-1.32-2.84-3.08,0-3.76,0-7.52,0-11.28v-3c0-.91-.05-1.85-.68-2.48-.63-.63-1.56-.69-2.46-.69h-14.19c-1.85,0-3.2-1.19-3.2-2.83,0-.8.29-1.5.86-2.03.58-.54,1.39-.83,2.3-.84,0,0,6.07-.01,8.43-.01,2.23,0,4.47,0,6.7.02,4.41.02,7.9,3.51,7.94,7.93.01,1.68.01,3.36,0,5.04v4.78c0,1.81,0,3.62,0,5.42-.01,1.74-1.24,3.05-2.86,3.05h0Z"/>
    <path class="cls-1" d="m84.36,2.01c2.23,0,4.46,0,6.68.02,3.86.02,6.91,3.07,6.94,6.94.01,1.67.01,3.33,0,5,0,.81,0,1.62,0,2.43v2.37c0,1.81,0,3.62,0,5.42,0,1.19-.79,2.06-1.86,2.06-1.06,0-1.84-.87-1.84-2.08,0-3.66,0-7.32,0-10.98v-3.31c0-1.06-.07-2.28-.97-3.18-.9-.91-2.11-.99-3.19-.99-4.72,0-9.45,0-14.17,0-1.29,0-2.2-.76-2.2-1.84,0-.52.18-.97.54-1.29.39-.36.97-.57,1.62-.57h1.15c2.43,0,4.86-.01,7.29-.01M84.36.01c-2.81,0-5.63,0-8.44.01-2.41,0-4.16,1.65-4.16,3.87,0,2.2,1.79,3.83,4.2,3.83h0c4.73,0,9.45,0,14.18,0,0,0,0,0,.01,0,1.82,0,2.15.33,2.15,2.16,0,4.76-.01,9.53,0,14.29,0,2.32,1.67,4.07,3.84,4.07h0c2.17,0,3.85-1.73,3.86-4.04.02-2.6,0-5.2,0-7.81,0-2.48.02-4.96,0-7.45-.04-4.99-3.94-8.9-8.93-8.92-2.23-.01-4.46-.02-6.69-.02h0Z"/>
  </g>
  <g>
    <path d="m11.62,98.99c-.93,0-1.85,0-2.78-.01-4.28-.05-7.79-3.56-7.82-7.82-.03-4.84-.02-9.77,0-14.54v-.82c0-1.73,1.23-3.04,2.85-3.04,1.63,0,2.85,1.33,2.85,3.08,0,3.26,0,6.52,0,9.78v4.63c0,.86.08,1.75.68,2.35s1.49.69,2.35.69h14.3c1.88,0,3.19,1.16,3.19,2.83,0,1.68-1.3,2.85-3.17,2.86-.95,0-1.9,0-2.84,0h-4.96s-4.66,0-4.66,0Z"/>
    <path class="cls-1" d="m3.86,71.75v2c1.07,0,1.85.88,1.85,2.08,0,3.18,0,6.35,0,9.53v4.88c0,1.03.11,2.2.98,3.06.86.86,2.03.98,3.06.98h6.22s8.07,0,8.07,0c1.09,0,2.19.57,2.19,1.84,0,1.11-.87,1.85-2.17,1.86-.98,0-1.95,0-2.93,0h-2.92s-1.95,0-1.95,0c-.77,0-1.55,0-2.32,0-.77,0-1.54,0-2.31,0-.93,0-1.86,0-2.79-.01-3.74-.04-6.8-3.11-6.83-6.82-.03-4.91-.02-9.9,0-14.74v-.62c0-1.18.78-2.04,1.85-2.04v-2m0,0c-2.16,0-3.84,1.74-3.85,4.04-.01,5.12-.03,10.25,0,15.37.03,4.84,3.96,8.75,8.8,8.81.94.01,1.87.01,2.81.01,1.55,0,3.09,0,4.64,0,1.62,0,3.25,0,4.87,0,.98,0,1.96,0,2.94,0,2.41-.01,4.17-1.65,4.16-3.86,0-2.22-1.77-3.84-4.19-3.84-4.77,0-9.53,0-14.3,0h0c-1.67,0-2.04-.37-2.04-2.04,0-4.8.01-9.61,0-14.41,0-2.31-1.67-4.07-3.83-4.08,0,0-.01,0-.02,0h0Z"/>
  </g>
  <g>
    <path d="m3.84,27.23c-1.11,0-2.08-.62-2.53-1.62-.17-.38-.27-.89-.28-1.45-.03-1.89-.02-3.77-.02-5.66v-2.01s0-2.36,0-2.36c0-1.73,0-3.47,0-5.2.04-4.4,3.49-7.87,7.85-7.9,2.24-.01,4.48-.02,6.72-.02s4.69,0,7.04.01h1.48c.93,0,1.76.32,2.33.89.52.52.79,1.22.79,2.01,0,1.62-1.31,2.8-3.11,2.8h-14.17c-2.49,0-3.25.75-3.25,3.2v4.12c0,3.43,0,6.86,0,10.29,0,1.42-.89,2.54-2.25,2.83-.2.04-.41.07-.62.07Z"/>
    <path class="cls-1" d="m15.59,2.01c2.35,0,4.71,0,7.06.01h1.46c.67,0,1.24.22,1.62.6.33.33.5.78.5,1.3,0,1.06-.87,1.8-2.11,1.8h-4.91s-7.14,0-7.14,0h-2.13c-1.15,0-2.34.07-3.25.96-.92.9-.99,2.14-.99,3.24v4.14c0,3.42,0,6.85,0,10.27,0,.95-.56,1.66-1.46,1.86-.13.03-.27.04-.4.04-.71,0-1.33-.4-1.62-1.04-.11-.25-.18-.63-.19-1.05-.03-1.88-.02-3.81-.02-5.67v-1.99c0-.79,0-1.57,0-2.36,0-1.73,0-3.46,0-5.19.03-3.85,3.05-6.88,6.86-6.91,2.24-.01,4.48-.02,6.71-.02M15.59,0c-2.24,0-4.48,0-6.73.02C3.96.06.06,3.99.02,8.92c-.02,2.52,0,5.04,0,7.57,0,2.56-.02,5.12.02,7.69,0,.62.12,1.29.37,1.85.63,1.39,2,2.21,3.44,2.21.28,0,.56-.03.83-.09,1.8-.39,3.03-1.91,3.04-3.81.01-4.8,0-9.61,0-14.41,0-1.9.31-2.2,2.24-2.2,0,0,0,0,0,0,3.09,0,6.17,0,9.26,0,1.64,0,3.28,0,4.91,0,2.34,0,4.1-1.63,4.11-3.79,0-2.24-1.72-3.89-4.12-3.9-2.84,0-5.69-.01-8.53-.01h0Z"/>
  </g>
  <g>
    <path d="m84.4,98.99c-2.38,0-4.76,0-7.14-.01h-1.46c-.89,0-1.69-.33-2.26-.91-.51-.52-.79-1.21-.78-1.94.02-1.67,1.29-2.84,3.08-2.85,1.67,0,3.33,0,4.99,0,2.28,0,9.3.01,9.3.01.88,0,1.84-.05,2.48-.69.64-.64.69-1.57.69-2.47,0-4.73-.01-9.45,0-14.17,0-1.89,1.15-3.17,2.85-3.2h0c1.66,0,2.84,1.33,2.85,3.16,0,1.92,0,3.85,0,5.78v2.02s0,2.33,0,2.33c0,1.7,0,3.41,0,5.11-.05,4.28-3.56,7.79-7.82,7.82-2.26.02-4.51.02-6.77.02Z"/>
    <path class="cls-1" d="m96.18,73.75c1.06,0,1.8.89,1.81,2.16,0,1.99,0,3.97,0,5.96v1.84c0,.77,0,1.55,0,2.32,0,1.67.01,3.4,0,5.1-.04,3.74-3.1,6.81-6.82,6.83-2.25.02-4.5.02-6.75.02-2.36,0-4.73,0-7.09-.01h-1.51c-.62,0-1.17-.22-1.55-.61-.23-.23-.5-.63-.49-1.23.01-1.11.85-1.86,2.08-1.86,1.68,0,3.36,0,5.04,0,2.33,0,4.65,0,6.98,0h2.29c1.13,0,2.3-.12,3.16-.98.98-.99.98-2.41.98-3.18,0-4.72-.01-9.44,0-14.17,0-1.05.49-2.18,1.87-2.2h.03m0-2s-.04,0-.06,0c-2.24.03-3.83,1.76-3.84,4.2,0,4.72,0,9.45,0,14.17,0,1.81-.34,2.16-2.14,2.16,0,0-.01,0-.02,0-3.08,0-6.16-.01-9.25-.01-1.68,0-3.37,0-5.05,0-2.34,0-4.04,1.64-4.07,3.84-.03,2.15,1.74,3.85,4.04,3.86,2.87,0,5.74.02,8.61.02,2.26,0,4.51,0,6.77-.02,4.83-.04,8.75-3.98,8.81-8.81.03-2.48,0-4.96,0-7.45,0-2.6.01-5.2,0-7.81,0-2.38-1.65-4.15-3.81-4.15h0Z"/>
  </g>
  <g>
    <path d="m49.95,70.83c-5.51,0-10.72-2.19-14.67-6.15-3.96-3.98-6.13-9.23-6.11-14.78.04-11.42,9.39-20.72,20.84-20.72,11.5.02,20.83,9.36,20.82,20.81,0,11.49-9.37,20.84-20.86,20.84h-.01Z"/>
    <path class="cls-1" d="m50.01,28.17l.03,2c10.92.02,19.79,8.91,19.78,19.81,0,10.94-8.92,19.84-19.88,19.84-5.24,0-10.2-2.08-13.96-5.86-3.77-3.79-5.84-8.79-5.82-14.07.04-10.87,8.94-19.72,19.84-19.72v-2m0,0c-11.93,0-21.8,9.8-21.84,21.71-.04,12.01,9.81,21.93,21.78,21.94,0,0,.01,0,.02,0,12,0,21.86-9.84,21.86-21.84,0-11.93-9.84-21.79-21.78-21.81-.01,0-.02,0-.04,0h0Z"/>
  </g>
</svg>